<svg xmlns="http://www.w3.org/2000/svg" viewBox="0 0 512 512" role="img" aria-labelledby="title desc">
  <title id="title">Image Studio app logo</title>
  <desc id="desc">A dark square app icon with a copper image-generation mark.</desc>
  <defs>
    <linearGradient id="bg" x1="96" y1="48" x2="416" y2="464" gradientUnits="userSpaceOnUse">
      <stop offset="0" stop-color="#2f2f2d" />
      <stop offset="1" stop-color="#1b1b19" />
    </linearGradient>
    <linearGradient id="accent" x1="138" y1="132" x2="384" y2="390" gradientUnits="userSpaceOnUse">
      <stop offset="0" stop-color="#d97757" />
      <stop offset="1" stop-color="#c96442" />
    </linearGradient>
    <filter id="soft-shadow" x="88" y="82" width="336" height="344" color-interpolation-filters="sRGB" filterUnits="userSpaceOnUse">
      <feDropShadow dx="0" dy="16" stdDeviation="18" flood-color="#000000" flood-opacity="0.28" />
    </filter>
  </defs>
  <rect width="512" height="512" rx="104" fill="#262624" />
  <rect x="36" y="36" width="440" height="440" rx="88" fill="url(#bg)" stroke="#3a3935" stroke-width="2" />
  <g filter="url(#soft-shadow)">
    <rect x="128" y="132" width="256" height="250" rx="44" fill="#2c2c2b" stroke="#f1f1ef" stroke-width="20" />
    <path d="M148 310l72-68 44 50 34-34 70 82" fill="none" stroke="url(#accent)" stroke-linecap="round" stroke-linejoin="round" stroke-width="24" />
    <circle cx="211" cy="209" r="22" fill="#d97757" />
    <path d="M362 102l13 35 35 13-35 13-13 35-13-35-35-13 35-13z" fill="#d97757" />
    <path d="M306 91l7 18 18 7-18 7-7 18-7-18-18-7 18-7z" fill="#f1f1ef" opacity="0.92" />
  </g>
</svg>
